<svg xmlns="http://www.w3.org/2000/svg" width="276" height="450" viewBox="136 384 276 450">
  <path d="M276 506 L258 712" fill="none" stroke="#332b3a" stroke-width="58" stroke-linecap="butt" stroke-linejoin="round"/>
  <path d="M276 506 L258 712" fill="none" stroke="#4a3f52" stroke-width="46" stroke-linecap="butt" stroke-linejoin="round"/>
  <path d="M324 506 L342 712" fill="none" stroke="#332b3a" stroke-width="58" stroke-linecap="butt" stroke-linejoin="round"/>
  <path d="M324 506 L342 712" fill="none" stroke="#4a3f52" stroke-width="46" stroke-linecap="butt" stroke-linejoin="round"/>
  <path d="M251 478 C272 470 328 470 349 478 L353 502 L361 532 L362 548 C362 558 352 566 338 566 L320 566 C310 566 305 560 303 552 L300 544 L297 552 C295 560 290 566 280 566 L262 566 C248 566 238 558 238 548 L239 532 L247 502 Z" fill="#4a3f52" stroke="#332b3a" stroke-width="6" stroke-linejoin="round"/>
  <path d="M244 500 L356 500" fill="none" stroke="#332b3a" stroke-width="6" stroke-linecap="round" stroke-linejoin="round" opacity="0.6"/>
</svg>
